<svg xmlns="http://www.w3.org/2000/svg" width="20" height="20" viewBox="0 0 24 24" aria-hidden="true">
  <g fill="none" stroke="#000" stroke-width="2" stroke-linecap="round" stroke-linejoin="round">
    <circle cx="12" cy="12" r="3"/>
    <path d="M19.4 15a2 2 0 0 0 .4 2.2l.1.1a2 2 0 1 1-2.9 2.9l-.1-.1a2 2 0 0 0-2.2-.4 2 2 0 0 0-1.2 1.8V22a2 2 0 1 1-4 0v-.1a2 2 0 0 0-1.2-1.8 2 2 0 0 0-2.2.4l-.1.1A2 2 0 1 1 21 5.9l-.1.1A2 2 0 0 0 20.8 8c0 .8.5 1.6 1.2 1.8h.9a2 2 0 1 1 0 4h-.9A2 2 0 0 0 19.4 15z"/>
  </g>
</svg>