<svg xmlns="http://www.w3.org/2000/svg" width="20" height="20" fill="none" stroke="black" stroke-width="2" viewBox="0 0 24 24">
<circle cx="12" cy="12" r="3"/>
<path d="M19.4 15a1.65 1.65 0 0 0 .33 1.82l.06.06a2 2 0 1 1-2.83 2.83l-.06-.06a1.65 1.65 0 0 0-1.82-.33 1.65 1.65 0 0 0-1 1.51V21a2 2 0 1 1-4 0v-.09a1.65 1.65 0 0 0-1-1.51 1.65 1.65 0 0 0-1.82.33l-.06.06a2 2 0 1 1-2.83-2.83l.06-.06a1.65 1.65 0 0 0 .33-1.82 1.65 1.65 0 0 0-1.51-1H3a2 2 0 1 1 0-4h.09c.7 0 1.31-.4 1.51-1a1.65 1.65 0 0 0-.33-1.82l-.06-.06a2 2 0 1 1 2.83-2.83l.06.06c.46.46 1.12.6 1.82.33.61-.25 1-0.86 1-1.51V3a2 2 0 1 1 4 0v.09c0 .65.39 1.26 1 1.51.7.27 1.36.13 1.82-.33l.06-.06a2 2 0 1 1 2.83 2.83l-.06.06c-.46.46-.6 1.12-.33 1.82.25.61.86 1 1.51 1H21a2 2 0 1 1 0 4h-.09c-.65 0-1.26.39-1.51 1z"/>
</svg>